<?xml version="1.0" standalone="no"?><!DOCTYPE svg PUBLIC "-//W3C//DTD SVG 1.1//EN" "http://www.w3.org/Graphics/SVG/1.1/DTD/svg11.dtd"><svg t="1719060306907" class="icon" viewBox="0 0 1024 1024" version="1.1" xmlns="http://www.w3.org/2000/svg" p-id="1123" width="256" height="256" xmlns:xlink="http://www.w3.org/1999/xlink"><path d="M878.88 275.36V896a48 48 0 0 1-48 48h-608a48 48 0 0 1-48-42.08 36.96 36.96 0 0 1 0-5.92V128a48 48 0 0 1 48-48h460a48 48 0 0 1 28.32 9.28 32 32 0 0 1 5.76 4.8L864 241.44a43.04 43.04 0 0 1 9.12 13.12 44.8 44.8 0 0 1 5.76 20.8z" fill="#85CBF8" p-id="1124"></path><path d="M880 464L400 944H176v-70.56l-1.28-80 1.28-1.28 618.88-620.64L864 241.44a43.04 43.04 0 0 1 9.12 13.12l4.96 170.56zM759.68 136.32L176 720l-1.12-43.68-1.28-49.92 1.28-1.28L711.2 88.8a32 32 0 0 1 5.76 4.8zM173.6 530.4L624 80h48L173.6 578.4v-48z" fill="#9FDDFF" p-id="1125"></path><path d="M326.72 256.48l-19.68 36.16-36.32 19.84 36.32 19.84 19.68 36.16 19.84-36.16 36.32-19.84-36.32-19.84-19.84-36.16zM568.16 160.48l-13.76 25.12-24.96 13.6 24.96 13.6 13.76 25.12 13.6-25.12 25.12-13.6-25.12-13.6-13.6-25.12zM804.48 672.48l-9.28 17.12-17.12 9.28 17.12 9.28 9.28 17.12 9.28-17.12 17.12-9.28-17.12-9.28-9.28-17.12z" fill="#FFFFFF" p-id="1126"></path><path d="M686.88 80.48v192h192l-192-192z" fill="#FFEFB8" p-id="1127"></path><path d="M872.64 225.92l-138.56-138.56A80 80 0 0 0 677.44 64H208a48 48 0 0 0-48 48v800a48 48 0 0 0 48 48h640a48 48 0 0 0 48-48V282.56a80 80 0 0 0-23.36-56.64z m-22.56 22.56a48 48 0 0 1 6.08 7.36H720a16 16 0 0 1-16-16V104a48 48 0 0 1 7.36 6.08zM848 928H208a16 16 0 0 1-16-16V112a16 16 0 0 1 16-16h464v144a48 48 0 0 0 48 48h144v624a16 16 0 0 1-16 16z" fill="#8D6C9F" p-id="1128"></path><path d="M240 800a16 16 0 0 0-16 16v32a16 16 0 0 0 32 0v-32a16 16 0 0 0-16-16zM320 800a16 16 0 0 0-16 16v32a16 16 0 0 0 32 0v-32a16 16 0 0 0-16-16zM400 800a16 16 0 0 0-16 16v32a16 16 0 0 0 32 0v-32a16 16 0 0 0-16-16zM480 800a16 16 0 0 0-16 16v32a16 16 0 0 0 32 0v-32a16 16 0 0 0-16-16zM560 800a16 16 0 0 0-16 16v32a16 16 0 0 0 32 0v-32a16 16 0 0 0-16-16zM640 800a16 16 0 0 0-16 16v32a16 16 0 0 0 32 0v-32a16 16 0 0 0-16-16zM720 800a16 16 0 0 0-16 16v32a16 16 0 0 0 32 0v-32a16 16 0 0 0-16-16zM800 800a16 16 0 0 0-16 16v32a16 16 0 0 0 32 0v-32a16 16 0 0 0-16-16z" fill="#8D6C9F" p-id="1129"></path><path d="M368 512h320a16 16 0 0 0 0-32H368a16 16 0 0 0 0 32zM368 576h320a16 16 0 0 0 0-32H368a16 16 0 0 0 0 32zM688 608H368a16 16 0 0 0 0 32h320a16 16 0 0 0 0-32zM528 672H368a16 16 0 0 0 0 32h160a16 16 0 0 0 0-32z" fill="#FFFFFF" p-id="1130"></path></svg>
